<svg xmlns="http://www.w3.org/2000/svg" width="736" height="641" viewBox="0 0 736 641" font-family="system-ui, sans-serif" font-size="12">
<title>F4. The text carries the signal; the read-out decides whether it is reached</title>
<rect width="736" height="641" fill="#fcfcfb"/>
<text x="16" y="24" fill="#1a1a19" font-size="15" font-weight="600">F4. The text carries the signal; the read-out decides whether it is reached</text>
<text x="16" y="43" fill="#5f5e58">AUPRC with 95% block-bootstrap intervals, tested on 2022 onward (Kelmarsh through 2024, Penmanshiel 2022 only)</text>
<line x1="257.2" x2="257.2" y1="58.0" y2="607.0" stroke="#e4e3dd" stroke-width="1"/><text x="257.2" y="623.0" fill="#5f5e58" text-anchor="middle">0.04</text>
<line x1="379.1" x2="379.1" y1="58.0" y2="607.0" stroke="#e4e3dd" stroke-width="1"/><text x="379.1" y="623.0" fill="#5f5e58" text-anchor="middle">0.06</text>
<line x1="501.1" x2="501.1" y1="58.0" y2="607.0" stroke="#e4e3dd" stroke-width="1"/><text x="501.1" y="623.0" fill="#5f5e58" text-anchor="middle">0.08</text>
<line x1="623.0" x2="623.0" y1="58.0" y2="607.0" stroke="#e4e3dd" stroke-width="1"/><text x="623.0" y="623.0" fill="#5f5e58" text-anchor="middle">0.1</text>
<line x1="249.7" x2="249.7" y1="52.0" y2="607.0" stroke="#1a1a19" stroke-width="1.5"/><text x="249.7" y="48.0" fill="#1a1a19" font-size="11" text-anchor="middle">base rate 0.0388</text>
<text x="16" y="80.0" fill="#1a1a19" font-size="12" font-weight="600">seed 1</text>
<text x="200.0" y="102.5" fill="#1a1a19" text-anchor="end">tel_only (a)</text><line x1="321.3" x2="423.1" y1="98.5" y2="98.5" stroke="#2a78d6" stroke-width="2" stroke-linecap="round"/>
<circle cx="367.0" cy="98.5" r="4.5" fill="#2a78d6" stroke="#fcfcfb" stroke-width="1.5"/>
<text x="200.0" y="123.5" fill="#1a1a19" text-anchor="end">joint (a)</text><line x1="334.5" x2="432.7" y1="119.5" y2="119.5" stroke="#eb6834" stroke-width="2" stroke-linecap="round"/>
<circle cx="380.3" cy="119.5" r="4.5" fill="#eb6834" stroke="#fcfcfb" stroke-width="1.5"/>
<text x="200.0" y="144.5" fill="#1a1a19" text-anchor="end">telemetry bag-of-tokens</text><line x1="284.6" x2="390.7" y1="140.5" y2="140.5" stroke="#b5893a" stroke-width="2" stroke-linecap="round"/>
<circle cx="332.3" cy="140.5" r="4.5" fill="#b5893a" stroke="#fcfcfb" stroke-width="1.5"/>
<text x="200.0" y="165.5" fill="#1a1a19" text-anchor="end">status-only bag-of-tokens</text><line x1="340.8" x2="610.3" y1="161.5" y2="161.5" stroke="#c2475f" stroke-width="2" stroke-linecap="round"/>
<circle cx="455.2" cy="161.5" r="4.5" fill="#c2475f" stroke="#fcfcfb" stroke-width="1.5"/>
<text x="200.0" y="186.5" fill="#1a1a19" text-anchor="end">(d) joint, text-aware</text><line x1="420.6" x2="571.6" y1="182.5" y2="182.5" stroke="#3f8f5b" stroke-width="2" stroke-linecap="round"/>
<circle cx="489.0" cy="182.5" r="4.5" fill="#3f8f5b" stroke="#fcfcfb" stroke-width="1.5"/>
<text x="200.0" y="207.5" fill="#1a1a19" text-anchor="end">(d) random-init backbone</text><line x1="321.0" x2="419.6" y1="203.5" y2="203.5" stroke="#8a5cd0" stroke-width="2" stroke-linecap="round"/>
<circle cx="367.7" cy="203.5" r="4" fill="#fcfcfb" stroke="#8a5cd0" stroke-width="2"/>
<text x="650.0" y="207.5" fill="#5f5e58" font-size="11">gate floor</text>
<text x="200.0" y="228.5" fill="#1a1a19" text-anchor="end">(d) tel_only backbone</text><line x1="287.0" x2="366.1" y1="224.5" y2="224.5" stroke="#8a5cd0" stroke-width="2" stroke-linecap="round"/>
<circle cx="323.8" cy="224.5" r="4" fill="#fcfcfb" stroke="#8a5cd0" stroke-width="2"/>
<text x="650.0" y="228.5" fill="#5f5e58" font-size="11">collapsed rows</text>
<text x="16" y="257.0" fill="#1a1a19" font-size="12" font-weight="600">seed 2</text>
<text x="200.0" y="279.5" fill="#1a1a19" text-anchor="end">tel_only (a)</text><line x1="319.9" x2="422.0" y1="275.5" y2="275.5" stroke="#2a78d6" stroke-width="2" stroke-linecap="round"/>
<circle cx="364.6" cy="275.5" r="4.5" fill="#2a78d6" stroke="#fcfcfb" stroke-width="1.5"/>
<text x="200.0" y="300.5" fill="#1a1a19" text-anchor="end">joint (a)</text><line x1="312.2" x2="394.7" y1="296.5" y2="296.5" stroke="#eb6834" stroke-width="2" stroke-linecap="round"/>
<circle cx="351.3" cy="296.5" r="4.5" fill="#eb6834" stroke="#fcfcfb" stroke-width="1.5"/>
<text x="200.0" y="321.5" fill="#1a1a19" text-anchor="end">telemetry bag-of-tokens</text><line x1="284.6" x2="390.7" y1="317.5" y2="317.5" stroke="#b5893a" stroke-width="2" stroke-linecap="round"/>
<circle cx="332.3" cy="317.5" r="4.5" fill="#b5893a" stroke="#fcfcfb" stroke-width="1.5"/>
<text x="200.0" y="342.5" fill="#1a1a19" text-anchor="end">status-only bag-of-tokens</text><line x1="340.8" x2="610.3" y1="338.5" y2="338.5" stroke="#c2475f" stroke-width="2" stroke-linecap="round"/>
<circle cx="455.2" cy="338.5" r="4.5" fill="#c2475f" stroke="#fcfcfb" stroke-width="1.5"/>
<text x="200.0" y="363.5" fill="#1a1a19" text-anchor="end">(d) joint, text-aware</text><line x1="438.5" x2="585.6" y1="359.5" y2="359.5" stroke="#3f8f5b" stroke-width="2" stroke-linecap="round"/>
<circle cx="507.3" cy="359.5" r="4.5" fill="#3f8f5b" stroke="#fcfcfb" stroke-width="1.5"/>
<text x="200.0" y="384.5" fill="#1a1a19" text-anchor="end">(d) random-init backbone</text><line x1="317.9" x2="416.5" y1="380.5" y2="380.5" stroke="#8a5cd0" stroke-width="2" stroke-linecap="round"/>
<circle cx="364.0" cy="380.5" r="4" fill="#fcfcfb" stroke="#8a5cd0" stroke-width="2"/>
<text x="650.0" y="384.5" fill="#5f5e58" font-size="11">gate floor</text>
<text x="200.0" y="405.5" fill="#1a1a19" text-anchor="end">(d) tel_only backbone</text><line x1="296.7" x2="375.5" y1="401.5" y2="401.5" stroke="#8a5cd0" stroke-width="2" stroke-linecap="round"/>
<circle cx="333.8" cy="401.5" r="4" fill="#fcfcfb" stroke="#8a5cd0" stroke-width="2"/>
<text x="650.0" y="405.5" fill="#5f5e58" font-size="11">collapsed rows</text>
<text x="16" y="434.0" fill="#1a1a19" font-size="12" font-weight="600">seed 3</text>
<text x="200.0" y="456.5" fill="#1a1a19" text-anchor="end">tel_only (a)</text><line x1="289.2" x2="370.8" y1="452.5" y2="452.5" stroke="#2a78d6" stroke-width="2" stroke-linecap="round"/>
<circle cx="327.3" cy="452.5" r="4.5" fill="#2a78d6" stroke="#fcfcfb" stroke-width="1.5"/>
<text x="200.0" y="477.5" fill="#1a1a19" text-anchor="end">joint (a)</text><line x1="281.9" x2="354.2" y1="473.5" y2="473.5" stroke="#eb6834" stroke-width="2" stroke-linecap="round"/>
<circle cx="316.5" cy="473.5" r="4.5" fill="#eb6834" stroke="#fcfcfb" stroke-width="1.5"/>
<text x="200.0" y="498.5" fill="#1a1a19" text-anchor="end">telemetry bag-of-tokens</text><line x1="284.6" x2="390.7" y1="494.5" y2="494.5" stroke="#b5893a" stroke-width="2" stroke-linecap="round"/>
<circle cx="332.3" cy="494.5" r="4.5" fill="#b5893a" stroke="#fcfcfb" stroke-width="1.5"/>
<text x="200.0" y="519.5" fill="#1a1a19" text-anchor="end">status-only bag-of-tokens</text><line x1="340.8" x2="610.3" y1="515.5" y2="515.5" stroke="#c2475f" stroke-width="2" stroke-linecap="round"/>
<circle cx="455.2" cy="515.5" r="4.5" fill="#c2475f" stroke="#fcfcfb" stroke-width="1.5"/>
<text x="200.0" y="540.5" fill="#1a1a19" text-anchor="end">(d) joint, text-aware</text><line x1="378.3" x2="489.1" y1="536.5" y2="536.5" stroke="#3f8f5b" stroke-width="2" stroke-linecap="round"/>
<circle cx="430.7" cy="536.5" r="4.5" fill="#3f8f5b" stroke="#fcfcfb" stroke-width="1.5"/>
<text x="200.0" y="561.5" fill="#1a1a19" text-anchor="end">(d) random-init backbone</text><line x1="304.5" x2="395.6" y1="557.5" y2="557.5" stroke="#8a5cd0" stroke-width="2" stroke-linecap="round"/>
<circle cx="346.8" cy="557.5" r="4" fill="#fcfcfb" stroke="#8a5cd0" stroke-width="2"/>
<text x="650.0" y="561.5" fill="#5f5e58" font-size="11">gate floor</text>
<text x="200.0" y="582.5" fill="#1a1a19" text-anchor="end">(d) tel_only backbone</text><line x1="239.7" x2="298.8" y1="578.5" y2="578.5" stroke="#8a5cd0" stroke-width="2" stroke-linecap="round"/>
<circle cx="268.0" cy="578.5" r="4" fill="#fcfcfb" stroke="#8a5cd0" stroke-width="2"/>
<text x="650.0" y="582.5" fill="#5f5e58" font-size="11">collapsed rows</text>
<text x="425" y="633" fill="#5f5e58" text-anchor="middle">AUPRC (higher is better)</text>
</svg>
